<?xml version="1.0" encoding="UTF-8" standalone="no"?>
<!-- Created with Inkscape (http://www.inkscape.org/) -->

<svg
   version="1.1"
   id="svg824"
   xml:space="preserve"
   width="437.2392"
   height="411.16364"
   viewBox="0 0 437.2392 411.16365"
   sodipodi:docname="ib.svg"
   inkscape:version="1.1.1 (3bf5ae0d25, 2021-09-20)"
   xmlns:inkscape="http://www.inkscape.org/namespaces/inkscape"
   xmlns:sodipodi="http://sodipodi.sourceforge.net/DTD/sodipodi-0.dtd"
   xmlns="http://www.w3.org/2000/svg"
   xmlns:svg="http://www.w3.org/2000/svg"><defs
     id="defs828"><clipPath
       clipPathUnits="userSpaceOnUse"
       id="clipPath1332"><path
         d="m 768.2377,607.4456 h -10.4111 v 32.3095 h 10.4111 v 1.1963 h -11.6076 v -34.7029 h 11.6076 z"
         clip-rule="evenodd"
         id="path1330" /></clipPath><linearGradient
       x1="751.73999"
       y1="620.29999"
       x2="824.57001"
       y2="642.75"
       gradientUnits="userSpaceOnUse"
       spreadMethod="pad"
       id="linearGradient1348"><stop
         style="stop-opacity:1;stop-color:#bf865c"
         offset="0"
         id="stop1334" /><stop
         style="stop-opacity:1;stop-color:#bf865c"
         offset="0.04"
         id="stop1336" /><stop
         style="stop-opacity:1;stop-color:#e8db94"
         offset="0.16"
         id="stop1338" /><stop
         style="stop-opacity:1;stop-color:#efe8c2"
         offset="0.36"
         id="stop1340" /><stop
         style="stop-opacity:1;stop-color:#e7da90"
         offset="0.74"
         id="stop1342" /><stop
         style="stop-opacity:1;stop-color:#cea872"
         offset="0.87"
         id="stop1344" /><stop
         style="stop-opacity:1;stop-color:#bf865c"
         offset="1"
         id="stop1346" /></linearGradient><clipPath
       clipPathUnits="userSpaceOnUse"
       id="clipPath1358"><path
         d="m 818.4971,640.9514 v -1.1963 h 10.4106 v -32.3095 h -10.4106 v -1.1971 h 11.6068 v 34.7029 z"
         clip-rule="evenodd"
         id="path1356" /></clipPath><linearGradient
       x1="757.09998"
       y1="602.89001"
       x2="829.94"
       y2="625.34003"
       gradientUnits="userSpaceOnUse"
       spreadMethod="pad"
       id="linearGradient1374"><stop
         style="stop-opacity:1;stop-color:#bf865c"
         offset="0"
         id="stop1360" /><stop
         style="stop-opacity:1;stop-color:#bf865c"
         offset="0.04"
         id="stop1362" /><stop
         style="stop-opacity:1;stop-color:#e8db94"
         offset="0.16"
         id="stop1364" /><stop
         style="stop-opacity:1;stop-color:#efe8c2"
         offset="0.36"
         id="stop1366" /><stop
         style="stop-opacity:1;stop-color:#e7da90"
         offset="0.74"
         id="stop1368" /><stop
         style="stop-opacity:1;stop-color:#cea872"
         offset="0.87"
         id="stop1370" /><stop
         style="stop-opacity:1;stop-color:#bf865c"
         offset="1"
         id="stop1372" /></linearGradient><clipPath
       clipPathUnits="userSpaceOnUse"
       id="clipPath1384"><path
         d="m 857.029,607.4456 h -10.4108 v 32.3095 h 10.4108 v 1.1963 h -11.6076 v -34.7029 h 11.6076 z"
         clip-rule="evenodd"
         id="path1382" /></clipPath><linearGradient
       x1="844.41998"
       y1="625.72998"
       x2="916.23999"
       y2="603.28003"
       gradientUnits="userSpaceOnUse"
       spreadMethod="pad"
       id="linearGradient1400"><stop
         style="stop-opacity:1;stop-color:#bf865c"
         offset="0"
         id="stop1386" /><stop
         style="stop-opacity:1;stop-color:#bf865c"
         offset="0.04"
         id="stop1388" /><stop
         style="stop-opacity:1;stop-color:#e8db94"
         offset="0.16"
         id="stop1390" /><stop
         style="stop-opacity:1;stop-color:#efe8c2"
         offset="0.36"
         id="stop1392" /><stop
         style="stop-opacity:1;stop-color:#e7da90"
         offset="0.74"
         id="stop1394" /><stop
         style="stop-opacity:1;stop-color:#cea872"
         offset="0.87"
         id="stop1396" /><stop
         style="stop-opacity:1;stop-color:#bf865c"
         offset="1"
         id="stop1398" /></linearGradient><clipPath
       clipPathUnits="userSpaceOnUse"
       id="clipPath1410"><path
         d="m 907.2884,640.9514 v -1.1963 h 10.4108 v -32.3095 h -10.4108 v -1.1971 h 11.6076 v 34.7029 z"
         clip-rule="evenodd"
         id="path1408" /></clipPath><linearGradient
       x1="849.91998"
       y1="643.34003"
       x2="921.73999"
       y2="620.90002"
       gradientUnits="userSpaceOnUse"
       spreadMethod="pad"
       id="linearGradient1426"><stop
         style="stop-opacity:1;stop-color:#bf865c"
         offset="0"
         id="stop1412" /><stop
         style="stop-opacity:1;stop-color:#bf865c"
         offset="0.04"
         id="stop1414" /><stop
         style="stop-opacity:1;stop-color:#e8db94"
         offset="0.16"
         id="stop1416" /><stop
         style="stop-opacity:1;stop-color:#efe8c2"
         offset="0.36"
         id="stop1418" /><stop
         style="stop-opacity:1;stop-color:#e7da90"
         offset="0.74"
         id="stop1420" /><stop
         style="stop-opacity:1;stop-color:#cea872"
         offset="0.87"
         id="stop1422" /><stop
         style="stop-opacity:1;stop-color:#bf865c"
         offset="1"
         id="stop1424" /></linearGradient><clipPath
       clipPathUnits="userSpaceOnUse"
       id="clipPath1436"><path
         d="m 946.7782,607.4456 h -10.4108 v 32.3095 h 10.4108 v 1.1963 h -11.6076 v -34.7029 h 11.6076 z"
         clip-rule="evenodd"
         id="path1434" /></clipPath><linearGradient
       x1="929.42999"
       y1="626.25"
       x2="1012.88"
       y2="607.07001"
       gradientUnits="userSpaceOnUse"
       spreadMethod="pad"
       id="linearGradient1452"><stop
         style="stop-opacity:1;stop-color:#b65712"
         offset="0"
         id="stop1438" /><stop
         style="stop-opacity:1;stop-color:#c6862d"
         offset="0.13"
         id="stop1440" /><stop
         style="stop-opacity:1;stop-color:#e2cc52"
         offset="0.26"
         id="stop1442" /><stop
         style="stop-opacity:1;stop-color:#e1d597"
         offset="0.64"
         id="stop1444" /><stop
         style="stop-opacity:1;stop-color:#e2cc57"
         offset="0.84"
         id="stop1446" /><stop
         style="stop-opacity:1;stop-color:#b65712"
         offset="0.96"
         id="stop1448" /><stop
         style="stop-opacity:1;stop-color:#b65712"
         offset="1"
         id="stop1450" /></linearGradient><clipPath
       clipPathUnits="userSpaceOnUse"
       id="clipPath1462"><path
         d="m 997.0376,640.9514 v -1.1963 h 10.4105 v -32.3095 h -10.4105 v -1.1971 h 11.6073 v 34.7029 z"
         clip-rule="evenodd"
         id="path1460" /></clipPath><linearGradient
       x1="932.53998"
       y1="639.76001"
       x2="1015.98"
       y2="620.58002"
       gradientUnits="userSpaceOnUse"
       spreadMethod="pad"
       id="linearGradient1478"><stop
         style="stop-opacity:1;stop-color:#b65712"
         offset="0"
         id="stop1464" /><stop
         style="stop-opacity:1;stop-color:#c6862d"
         offset="0.13"
         id="stop1466" /><stop
         style="stop-opacity:1;stop-color:#e2cc52"
         offset="0.26"
         id="stop1468" /><stop
         style="stop-opacity:1;stop-color:#e1d597"
         offset="0.64"
         id="stop1470" /><stop
         style="stop-opacity:1;stop-color:#e2cc57"
         offset="0.84"
         id="stop1472" /><stop
         style="stop-opacity:1;stop-color:#b65712"
         offset="0.96"
         id="stop1474" /><stop
         style="stop-opacity:1;stop-color:#b65712"
         offset="1"
         id="stop1476" /></linearGradient><clipPath
       clipPathUnits="userSpaceOnUse"
       id="clipPath1492"><path
         d="m 857.029,654.8094 h -10.4108 v 32.3098 h 10.4108 v 1.1968 h -11.6076 v -34.7031 h 11.6076 z"
         clip-rule="evenodd"
         id="path1490" /></clipPath><linearGradient
       x1="849.81"
       y1="670.64001"
       x2="911.22998"
       y2="684.91998"
       gradientUnits="userSpaceOnUse"
       spreadMethod="pad"
       id="linearGradient1508"><stop
         style="stop-opacity:1;stop-color:#ad734a"
         offset="0"
         id="stop1494" /><stop
         style="stop-opacity:1;stop-color:#ad734a"
         offset="0.04"
         id="stop1496" /><stop
         style="stop-opacity:1;stop-color:#d5c881"
         offset="0.16"
         id="stop1498" /><stop
         style="stop-opacity:1;stop-color:#dcd5b0"
         offset="0.36"
         id="stop1500" /><stop
         style="stop-opacity:1;stop-color:#d5c77e"
         offset="0.74"
         id="stop1502" /><stop
         style="stop-opacity:1;stop-color:#bc955f"
         offset="0.87"
         id="stop1504" /><stop
         style="stop-opacity:1;stop-color:#ad734a"
         offset="1"
         id="stop1506" /></linearGradient><clipPath
       clipPathUnits="userSpaceOnUse"
       id="clipPath1518"><path
         d="m 907.2884,688.316 v -1.1968 h 10.4108 v -32.3098 h -10.4108 v -1.1965 h 11.6076 v 34.7031 z"
         clip-rule="evenodd"
         id="path1516" /></clipPath><linearGradient
       x1="852.98999"
       y1="656.98999"
       x2="914.40002"
       y2="671.27002"
       gradientUnits="userSpaceOnUse"
       spreadMethod="pad"
       id="linearGradient1534"><stop
         style="stop-opacity:1;stop-color:#ad734a"
         offset="0"
         id="stop1520" /><stop
         style="stop-opacity:1;stop-color:#ad734a"
         offset="0.04"
         id="stop1522" /><stop
         style="stop-opacity:1;stop-color:#d5c881"
         offset="0.16"
         id="stop1524" /><stop
         style="stop-opacity:1;stop-color:#dcd5b0"
         offset="0.36"
         id="stop1526" /><stop
         style="stop-opacity:1;stop-color:#d5c77e"
         offset="0.74"
         id="stop1528" /><stop
         style="stop-opacity:1;stop-color:#bc955f"
         offset="0.87"
         id="stop1530" /><stop
         style="stop-opacity:1;stop-color:#ad734a"
         offset="1"
         id="stop1532" /></linearGradient><clipPath
       clipPathUnits="userSpaceOnUse"
       id="clipPath1544"><path
         d="m 946.7782,654.8094 h -10.4108 v 32.3098 h 10.4108 v 1.1968 h -11.6076 v -34.7031 h 11.6076 z"
         clip-rule="evenodd"
         id="path1542" /></clipPath><linearGradient
       x1="1012.47"
       y1="685.96002"
       x2="945.34998"
       y2="671.88"
       gradientUnits="userSpaceOnUse"
       spreadMethod="pad"
       id="linearGradient1560"><stop
         style="stop-opacity:1;stop-color:#bf865c"
         offset="0"
         id="stop1546" /><stop
         style="stop-opacity:1;stop-color:#bf865c"
         offset="0.04"
         id="stop1548" /><stop
         style="stop-opacity:1;stop-color:#e8db94"
         offset="0.16"
         id="stop1550" /><stop
         style="stop-opacity:1;stop-color:#efe8c2"
         offset="0.36"
         id="stop1552" /><stop
         style="stop-opacity:1;stop-color:#e7da90"
         offset="0.74"
         id="stop1554" /><stop
         style="stop-opacity:1;stop-color:#cea872"
         offset="0.87"
         id="stop1556" /><stop
         style="stop-opacity:1;stop-color:#bf865c"
         offset="1"
         id="stop1558" /></linearGradient><clipPath
       clipPathUnits="userSpaceOnUse"
       id="clipPath1570"><path
         d="m 997.0376,688.316 v -1.1968 h 10.4105 v -32.3098 h -10.4105 v -1.1965 h 11.6073 v 34.7031 z"
         clip-rule="evenodd"
         id="path1568" /></clipPath><linearGradient
       x1="1015.08"
       y1="673.53003"
       x2="947.95001"
       y2="659.45001"
       gradientUnits="userSpaceOnUse"
       spreadMethod="pad"
       id="linearGradient1586"><stop
         style="stop-opacity:1;stop-color:#bf865c"
         offset="0"
         id="stop1572" /><stop
         style="stop-opacity:1;stop-color:#bf865c"
         offset="0.04"
         id="stop1574" /><stop
         style="stop-opacity:1;stop-color:#e8db94"
         offset="0.16"
         id="stop1576" /><stop
         style="stop-opacity:1;stop-color:#efe8c2"
         offset="0.36"
         id="stop1578" /><stop
         style="stop-opacity:1;stop-color:#e7da90"
         offset="0.74"
         id="stop1580" /><stop
         style="stop-opacity:1;stop-color:#cea872"
         offset="0.87"
         id="stop1582" /><stop
         style="stop-opacity:1;stop-color:#bf865c"
         offset="1"
         id="stop1584" /></linearGradient><clipPath
       clipPathUnits="userSpaceOnUse"
       id="clipPath1596"><path
         d="m 768.2377,703.7714 h -10.4111 v 32.3098 h 10.4111 v 1.1965 h -11.6076 v -34.7028 h 11.6076 z"
         clip-rule="evenodd"
         id="path1594" /></clipPath><linearGradient
       x1="752.51001"
       y1="716.22998"
       x2="826.57001"
       y2="743.78003"
       gradientUnits="userSpaceOnUse"
       spreadMethod="pad"
       id="linearGradient1612"><stop
         style="stop-opacity:1;stop-color:#bf865c"
         offset="0"
         id="stop1598" /><stop
         style="stop-opacity:1;stop-color:#bf865c"
         offset="0.04"
         id="stop1600" /><stop
         style="stop-opacity:1;stop-color:#e8db94"
         offset="0.16"
         id="stop1602" /><stop
         style="stop-opacity:1;stop-color:#efe8c2"
         offset="0.36"
         id="stop1604" /><stop
         style="stop-opacity:1;stop-color:#e7da90"
         offset="0.74"
         id="stop1606" /><stop
         style="stop-opacity:1;stop-color:#cea872"
         offset="0.87"
         id="stop1608" /><stop
         style="stop-opacity:1;stop-color:#bf865c"
         offset="1"
         id="stop1610" /></linearGradient><clipPath
       clipPathUnits="userSpaceOnUse"
       id="clipPath1622"><path
         d="m 818.4971,737.2777 v -1.1965 h 10.4106 v -32.3098 h -10.4106 v -1.1965 h 11.6068 v 34.7028 z"
         clip-rule="evenodd"
         id="path1620" /></clipPath><linearGradient
       x1="760.02002"
       y1="696.02002"
       x2="834.09003"
       y2="723.57001"
       gradientUnits="userSpaceOnUse"
       spreadMethod="pad"
       id="linearGradient1638"><stop
         style="stop-opacity:1;stop-color:#bf865c"
         offset="0"
         id="stop1624" /><stop
         style="stop-opacity:1;stop-color:#bf865c"
         offset="0.04"
         id="stop1626" /><stop
         style="stop-opacity:1;stop-color:#e8db94"
         offset="0.16"
         id="stop1628" /><stop
         style="stop-opacity:1;stop-color:#efe8c2"
         offset="0.36"
         id="stop1630" /><stop
         style="stop-opacity:1;stop-color:#e7da90"
         offset="0.74"
         id="stop1632" /><stop
         style="stop-opacity:1;stop-color:#cea872"
         offset="0.87"
         id="stop1634" /><stop
         style="stop-opacity:1;stop-color:#bf865c"
         offset="1"
         id="stop1636" /></linearGradient><clipPath
       clipPathUnits="userSpaceOnUse"
       id="clipPath1648"><path
         d="m 857.029,703.7714 h -10.4108 v 32.3098 h 10.4108 v 1.1965 h -11.6076 v -34.7028 h 11.6076 z"
         clip-rule="evenodd"
         id="path1646" /></clipPath><linearGradient
       x1="842.62"
       y1="722.21997"
       x2="914.65002"
       y2="703.03998"
       gradientUnits="userSpaceOnUse"
       spreadMethod="pad"
       id="linearGradient1664"><stop
         style="stop-opacity:1;stop-color:#bf865c"
         offset="0"
         id="stop1650" /><stop
         style="stop-opacity:1;stop-color:#bf865c"
         offset="0.04"
         id="stop1652" /><stop
         style="stop-opacity:1;stop-color:#e8db94"
         offset="0.16"
         id="stop1654" /><stop
         style="stop-opacity:1;stop-color:#efe8c2"
         offset="0.36"
         id="stop1656" /><stop
         style="stop-opacity:1;stop-color:#e7da90"
         offset="0.74"
         id="stop1658" /><stop
         style="stop-opacity:1;stop-color:#cea872"
         offset="0.87"
         id="stop1660" /><stop
         style="stop-opacity:1;stop-color:#bf865c"
         offset="1"
         id="stop1662" /></linearGradient><clipPath
       clipPathUnits="userSpaceOnUse"
       id="clipPath1674"><path
         d="m 907.2884,737.2777 v -1.1965 h 10.4108 v -32.3098 h -10.4108 v -1.1965 h 11.6076 v 34.7028 z"
         clip-rule="evenodd"
         id="path1672" /></clipPath><linearGradient
       x1="846.71997"
       y1="737.59998"
       x2="918.73999"
       y2="718.41998"
       gradientUnits="userSpaceOnUse"
       spreadMethod="pad"
       id="linearGradient1690"><stop
         style="stop-opacity:1;stop-color:#bf865c"
         offset="0"
         id="stop1676" /><stop
         style="stop-opacity:1;stop-color:#bf865c"
         offset="0.04"
         id="stop1678" /><stop
         style="stop-opacity:1;stop-color:#e8db94"
         offset="0.16"
         id="stop1680" /><stop
         style="stop-opacity:1;stop-color:#efe8c2"
         offset="0.36"
         id="stop1682" /><stop
         style="stop-opacity:1;stop-color:#e7da90"
         offset="0.74"
         id="stop1684" /><stop
         style="stop-opacity:1;stop-color:#cea872"
         offset="0.87"
         id="stop1686" /><stop
         style="stop-opacity:1;stop-color:#bf865c"
         offset="1"
         id="stop1688" /></linearGradient><clipPath
       clipPathUnits="userSpaceOnUse"
       id="clipPath1700"><path
         d="m 946.7782,703.7714 h -10.4108 v 32.3098 h 10.4108 v 1.1965 h -11.6076 v -34.7028 h 11.6076 z"
         clip-rule="evenodd"
         id="path1698" /></clipPath><linearGradient
       x1="935.16998"
       y1="719.29999"
       x2="1005.15"
       y2="726.84998"
       gradientUnits="userSpaceOnUse"
       spreadMethod="pad"
       id="linearGradient1716"><stop
         style="stop-opacity:1;stop-color:#bf865c"
         offset="0"
         id="stop1702" /><stop
         style="stop-opacity:1;stop-color:#bf865c"
         offset="0.04"
         id="stop1704" /><stop
         style="stop-opacity:1;stop-color:#e8db94"
         offset="0.16"
         id="stop1706" /><stop
         style="stop-opacity:1;stop-color:#efe8c2"
         offset="0.36"
         id="stop1708" /><stop
         style="stop-opacity:1;stop-color:#e7da90"
         offset="0.74"
         id="stop1710" /><stop
         style="stop-opacity:1;stop-color:#cea872"
         offset="0.87"
         id="stop1712" /><stop
         style="stop-opacity:1;stop-color:#bf865c"
         offset="1"
         id="stop1714" /></linearGradient><clipPath
       clipPathUnits="userSpaceOnUse"
       id="clipPath1726"><path
         d="m 997.0376,737.2777 v -1.1965 h 10.4105 v -32.3098 h -10.4105 v -1.1965 h 11.6073 v 34.7028 z"
         clip-rule="evenodd"
         id="path1724" /></clipPath><linearGradient
       x1="935.88"
       y1="712.70001"
       x2="1005.86"
       y2="720.25"
       gradientUnits="userSpaceOnUse"
       spreadMethod="pad"
       id="linearGradient1742"><stop
         style="stop-opacity:1;stop-color:#bf865c"
         offset="0"
         id="stop1728" /><stop
         style="stop-opacity:1;stop-color:#bf865c"
         offset="0.04"
         id="stop1730" /><stop
         style="stop-opacity:1;stop-color:#e8db94"
         offset="0.16"
         id="stop1732" /><stop
         style="stop-opacity:1;stop-color:#efe8c2"
         offset="0.36"
         id="stop1734" /><stop
         style="stop-opacity:1;stop-color:#e7da90"
         offset="0.74"
         id="stop1736" /><stop
         style="stop-opacity:1;stop-color:#cea872"
         offset="0.87"
         id="stop1738" /><stop
         style="stop-opacity:1;stop-color:#bf865c"
         offset="1"
         id="stop1740" /></linearGradient></defs><sodipodi:namedview
     id="namedview826"
     pagecolor="#ffffff"
     bordercolor="#666666"
     borderopacity="1.0"
     inkscape:pageshadow="2"
     inkscape:pageopacity="0.0"
     inkscape:pagecheckerboard="0"
     showgrid="false"
     fit-margin-top="0"
     fit-margin-left="0"
     fit-margin-right="0"
     fit-margin-bottom="0"
     inkscape:zoom="1.018245"
     inkscape:cx="224.40572"
     inkscape:cy="366.8076"
     inkscape:window-width="2560"
     inkscape:window-height="1361"
     inkscape:window-x="-9"
     inkscape:window-y="-9"
     inkscape:window-maximized="1"
     inkscape:current-layer="g830" /><g
     id="g830"
     inkscape:groupmode="layer"
     inkscape:label="לוגו IB תקשורת 2022"
     transform="matrix(1.3333333,0,0,-1.3333333,-197.78316,925.44793)"><path
       d="m 214.88557,679.59082 c -18.4258,4.8685 -30.5368,2.2652 -33.9098,-8.9705 -5.3711,-17.8889 16.5473,-58.4416 22.4683,-70.6051 4.8674,-10 10.5463,-12.4633 20.6974,-10.5908 11.8216,2.181 23.0318,11.2479 31.7345,20.2768 -30.0076,-8.873 -30.9362,-13.9901 -45.866,6.4593 -7.9886,10.9406 -14.8831,27.0802 -11.9707,41.9457 1.961,10.0111 9.5346,15.7895 16.8463,21.4846"
       style="fill:#f7aa47;fill-opacity:1;fill-rule:evenodd;stroke:none"
       id="path2202" /><path
       d="m 280.88517,658.16522 c 4.1017,19.0468 1.9083,31.5657 -7.558,35.0526 -15.0718,5.552 -49.2387,-17.1048 -59.4868,-23.2254 -8.4254,-5.0315 -10.5009,-10.9017 -8.9234,-21.395 1.8377,-12.2199 9.4768,-23.8079 17.0841,-32.8037 -7.4758,31.0187 -11.787,31.9785 5.4419,47.4115 9.218,8.2576 22.8161,15.3844 35.3404,12.374 8.4348,-2.027 13.3033,-9.856 18.1018,-17.414"
       style="fill:#2d496e;fill-opacity:1;fill-rule:evenodd;stroke:none"
       id="path2204" /><path
       d="m 237.24297,623.36532 c 0,-0.443 0.1224,-0.8092 0.3367,-1.0598 0.2277,-0.2662 0.506,-0.4196 0.864,-0.4196 h 13.9632 v -93.5727 h -14.343 c -0.1993,0 -0.3781,-0.1973 -0.5468,-0.6412 -0.1687,-0.4193 -0.2636,-1.1588 -0.2741,-2.17 v -23.0813 c -0.0102,-0.5426 0.0845,-1.0106 0.2843,-1.4301 0.2001,-0.3943 0.5479,-0.6168 1.0426,-0.6412 h 61.666 c 0.4,0 0.6636,0.1976 0.7792,0.5919 0.1262,0.3943 0.1792,1.0357 0.1687,1.923 v 23.5253 c 0,0.5181 -0.074,0.9124 -0.2322,1.2087 -0.1576,0.2712 -0.3999,0.4186 -0.7157,0.4186 h -14.3427 v 93.7211 h 14.3427 c 0.2628,0 0.4799,0.1508 0.6636,0.4929 0.1737,0.3229 0.2843,0.8388 0.2843,1.5784 v 24.5605 c 0,0.3458 -0.0785,0.6148 -0.2217,0.8138 -0.1403,0.1947 -0.3098,0.3107 -0.5051,0.3951 -0.2047,0.0888 -0.4008,0.1231 -0.6001,0.1231 h -61.6025 c -0.2943,0 -0.5224,-0.224 -0.7166,-0.6906 -0.1843,-0.4453 -0.2948,-1.1596 -0.2948,-2.1208 z"
       style="fill:#2d496e;fill-opacity:1;fill-rule:nonzero;stroke:none"
       id="path2206" /><path
       d="m 384.95437,500.34652 c 0.3058,0 0.8424,0.0987 1.6214,0.2957 0.7693,0.1973 1.6957,0.5675 2.77,1.0604 1.0741,0.5176 2.2113,1.2084 3.4226,2.1209 1.1999,0.9125 2.3901,2.0713 3.5481,3.477 1.1687,1.4057 2.2218,3.1068 3.1807,5.1043 0.9477,1.9727 1.7051,4.3152 2.2746,7.0028 0.5677,2.6631 0.8634,5.7458 0.873,9.1984 -0.01,3.5013 -0.2738,6.5588 -0.7894,9.1726 -0.5054,2.5895 -1.1792,4.809 -2.0217,6.6334 -0.8424,1.8496 -1.758,3.3783 -2.7485,4.6114 -0.9901,1.2333 -1.9797,2.2439 -2.9588,3.0333 -0.9799,0.7886 -1.864,1.4049 -2.6538,1.8987 -0.7894,0.4932 -1.411,0.9368 -1.8425,1.2818 0.8105,0.9127 1.7584,2.0219 2.8321,3.3046 1.0746,1.2818 2.1694,2.7862 3.2961,4.4382 1.1166,1.677 2.1589,3.5513 3.1275,5.6228 0.9584,2.0713 1.7374,4.3402 2.338,6.8301 0.5896,2.4905 0.8949,5.1789 0.9159,8.064 -0.0105,2.7125 -0.3263,5.3014 -0.9479,7.7182 -0.6313,2.4165 -1.4956,4.6601 -2.6005,6.7314 -1.1061,2.0713 -2.3905,3.9209 -3.8546,5.5735 -1.4632,1.6274 -3.0429,3.0331 -4.7378,4.1919 -1.6849,1.1588 -3.4336,2.0463 -5.2237,2.6631 -1.779,0.6163 -3.5589,0.9369 -5.3178,0.9369 h -87.9474 c -0.3268,0.0243 -0.5902,-0.2713 -0.8005,-0.8876 -0.2211,-0.6168 -0.3263,-1.6526 -0.3368,-3.1067 v -20.5662 c -0.011,-0.7396 0.095,-1.2821 0.3158,-1.6521 0.2208,-0.3699 0.6426,-0.5669 1.2634,-0.5669 h 13.5839 v -55.9264 h -14.1525 c -0.3793,0 -0.6636,-0.3206 -0.853,-0.9618 -0.1896,-0.6656 -0.2843,-1.7263 -0.2843,-3.1816 v -22.4887 c 0.0105,-0.5182 0.1052,-0.9125 0.2948,-1.2081 0.1894,-0.2713 0.4215,-0.4193 0.7164,-0.4193 z m -47.3854,43.0549 h 21.7973 c 0.6948,0 1.4111,-0.2225 2.1589,-0.6412 0.7373,-0.4195 1.432,-1.0114 2.0849,-1.7759 0.6417,-0.7642 1.1687,-1.7011 1.5791,-2.7618 0.4,-1.0601 0.6112,-2.2439 0.6217,-3.5507 -0.0105,-1.5287 -0.3268,-2.8114 -0.9479,-3.8471 -0.6112,-1.0355 -1.4423,-1.8 -2.4849,-2.3174 -1.0426,-0.5181 -2.2223,-0.7894 -3.5169,-0.7894 h -21.2922 z m 0,40.6874 h 21.8608 c 0.6625,0 1.3581,-0.2225 2.0954,-0.6412 0.7259,-0.4195 1.4216,-1.0114 2.0633,-1.7507 0.6531,-0.7401 1.1798,-1.5783 1.5903,-2.5401 0.4104,-0.9621 0.6216,-1.9726 0.6321,-3.0578 -0.0105,-1.0848 -0.1687,-2.0712 -0.474,-2.9593 -0.3053,-0.9125 -0.6953,-1.677 -1.1797,-2.3426 -0.474,-0.6655 -0.9791,-1.1837 -1.5163,-1.5531 -0.5366,-0.3458 -1.0315,-0.5425 -1.506,-0.5425 h -23.5659 z"
       style="fill:#f7aa47;fill-opacity:1;fill-rule:nonzero;stroke:none"
       id="path2208" /><path
       d="m 206.28857,428.04782 h -17.916 v 34.3752 c 0,4.6289 -2.0435,6.9522 -6.1311,6.9522 h -7.9775 v -25.903 c 0,-5.9491 -1.8791,-10.3445 -5.6537,-13.2185 -3.1148,-2.4233 -7.1363,-3.6264 -12.0643,-3.6264 -3.4452,0 -6.1809,0.4677 -8.2086,1.4205 v 13.3024 c 1.385,-0.7189 2.5716,-1.0698 3.5768,-1.0698 3.0821,0 4.6318,1.6044 4.6318,4.7959 v 12.35 c 0,4.8297 1.6481,8.2724 4.928,10.3278 l 2.2581,1.5208 h -12.1147 v 12.7343 h 36.1783 c 12.3284,0 18.4929,-6.2838 18.4929,-18.8504 z m 48.4742,0 h -17.9158 v 33.4899 c 0,5.999 -3.1975,9.0074 -9.6089,9.0074 -2.3238,0 -4.8787,-0.4181 -7.6808,-1.2702 -3.2142,-1.0531 -5.6695,-2.3233 -7.3349,-3.8274 v 14.8402 c 5.2413,1.9222 11.5379,2.8908 18.8719,2.8908 7.0215,0 12.593,-1.6044 16.7137,-4.7959 4.6309,-3.6933 6.9548,-9.2747 6.9548,-16.7446 z m 25.7788,0 h -17.9166 v 53.9614 h 17.9166 z m 48.1933,33.6906 c 0,-4.9975 -1.9287,-8.6239 -5.785,-10.9128 l -9.5108,-5.4315 h -0.8731 v 36.6151 h 16.1689 z m 24.3277,-5.2982 c 0,-9.7595 -3.2964,-17.146 -9.8898,-22.176 -5.4385,-4.1443 -12.3284,-6.2164 -20.6685,-6.2164 h -33.8871 v 53.9614 h 16.894 v -41.8121 h 14.6367 c 10.6798,0 16.0202,5.2973 16.0202,15.9091 v 25.903 h 16.8945 z m 59.171,2.4066 c 0,-13.1188 -6.6257,-22.4263 -19.8938,-27.9083 l -7.9609,-3.2751 h -0.6261 v 12.333 l 3.6589,1.9221 c 4.6644,2.4395 7.005,6.5838 7.005,12.4325 v 14.3892 h -33.9043 v 13.269 h 51.7212 z m -33.6234,-54.1262 h -17.6196 v 43.7987 c 0,4.3447 2.4003,7.6997 7.236,10.0267 l 9.3778,4.5125 1.0058,-0.2007 z m 97.6566,23.3272 h -17.9158 v 34.3752 c 0,4.6289 -2.0438,6.9522 -6.131,6.9522 h -7.9779 v -25.903 c 0,-5.9491 -1.8788,-10.3445 -5.6537,-13.2185 -3.1144,-2.4233 -7.1362,-3.6264 -12.0642,-3.6264 -3.4453,0 -6.1807,0.4677 -8.2086,1.4205 v 13.3024 c 1.385,-0.7189 2.5716,-1.0698 3.5768,-1.0698 3.0821,0 4.6318,1.6044 4.6318,4.7959 v 12.35 c 0,4.8297 1.648,8.2724 4.928,10.3278 l 2.2581,1.5208 h -12.1147 v 12.7343 h 36.1783 c 12.3284,0 18.4929,-6.2838 18.4929,-18.8504 z"
       style="fill:#2d496e;fill-opacity:1;fill-rule:nonzero;stroke:none"
       id="path2210" /><path
       d="m 271.26837,495.02872 c 3.043,0 5.5099,-2.4667 5.5099,-5.5099 0,-3.043 -2.4669,-5.5097 -5.5099,-5.5097 -3.043,0 -5.51,2.4667 -5.51,5.5097 0,3.0432 2.467,5.5099 5.51,5.5099"
       style="fill:#f7aa47;fill-opacity:1;fill-rule:nonzero;stroke:none"
       id="path2212" /><path
       d="m 197.88867,408.77672 c 0,-3.2972 -1.5193,-6.5401 -4.5768,-9.7101 -2.442,-2.6231 -5.3543,-4.7182 -8.7553,-6.2487 -0.9947,-0.4189 -2.0804,-0.3823 -3.2925,0.1095 0.2534,0.7835 2.6413,3.0787 7.1637,6.8862 3.9977,3.4251 5.9879,6.5222 5.9879,9.2911 0,1.4576 -0.8685,2.1863 -2.605,2.1863 -3.3469,0 -9.1715,-2.5143 -17.4747,-7.524 6.6027,7.2689 12.3188,10.9123 17.1669,10.9123 1.5196,0 2.9488,-0.6741 4.3055,-2.0038 1.3929,-1.3482 2.0803,-2.6416 2.0803,-3.8988 z m 18.94,18.2543 c -5.2642,-9.364 -13.1692,-23.1364 -23.6973,-41.3178 l -0.5247,0.9655 20.4052,41.2086 c 0.4161,0.9655 1.1758,1.4392 2.2793,1.4392 1.7005,0 2.2068,-0.7651 1.5375,-2.2955 z m 11.0713,-24.594 c -0.1267,-1.9675 -0.9587,-2.9511 -2.4786,-2.9511 -0.597,0 -1.7547,0.2914 -3.4549,0.856 -1.7912,0.6194 -2.8584,0.9111 -3.1657,0.9111 -1.592,0 -3.5096,-1.2753 -5.7345,-3.8441 -1.8995,-2.1679 -3.2562,-4.1717 -4.034,-6.0301 -1.4471,-0.182 -2.1708,0.3827 -2.1708,1.658 0,1.4938 1.628,3.8256 4.8841,6.9956 3.2202,3.1334 5.4632,4.7001 6.7295,4.7001 1.1576,0 2.9846,-0.4008 5.4632,-1.1843 -0.3257,1.4939 -1.5738,3.079 -3.763,4.7551 -2.1526,1.6396 -4.07,2.5504 -5.7342,2.7689 l -0.199,-0.2185 0.199,-0.419 c -0.0726,-0.419 0.0541,-1.4939 0.3798,-3.2063 -1.8453,1.3845 -2.8944,3.1882 -3.1836,5.3924 0.7776,0.8563 1.5736,1.2934 2.3877,1.2934 0.2712,0 1.1758,-0.1457 2.6954,-0.4371 2.4784,-0.6012 4.8841,-1.9494 7.2179,-4.0626 2.6773,-2.3865 3.9977,-4.7001 3.9617,-6.9775 z m 10.6004,13.9731 c 0,-1.1659 -1.0672,-3.844 -3.1838,-8.0523 -1.628,-3.1697 -3.4189,-5.9026 -5.4088,-8.2163 v 4.1536 c 0,1.4395 1.4111,4.9009 4.2511,10.4208 0.9768,1.9128 1.8451,3.1152 2.5869,3.5708 1.1755,0 1.7546,-0.6197 1.7546,-1.8766 z m 13.4408,-6.7952 c -0.8138,-0.1457 -1.3567,-0.2185 -1.628,-0.2185 l 0.0905,-0.5284 c 0.9586,-3.8075 1.4289,-6.6495 1.4289,-8.5442 0,-2.4959 -0.434,-4.682 -1.3204,-6.5585 -0.4164,-0.51 -0.8866,-0.8198 -1.411,-0.9655 -1.2119,-0.419 -1.8091,0.0181 -1.8091,1.33 0.2894,1.931 0.4884,3.3701 0.6332,4.354 0.1446,0.9837 0.2169,1.5302 0.2169,1.6215 0,2.9511 -0.2169,5.4836 -0.6508,7.5784 -1.3028,-1.3845 -2.5328,-2.7689 -3.6542,-4.1355 -1.1398,-1.3663 -2.1529,-2.7326 -3.0753,-4.0807 -2.406,-3.443 -4.0343,-5.9936 -4.8844,-7.6332 -0.8682,0.5647 -1.3206,1.3663 -1.3206,2.4047 0,0.7469 0.1811,1.4757 0.5428,2.1863 1.194,2.2042 3.2924,5.3377 6.2952,9.4003 0.4887,0.6012 1.1035,1.3663 1.8091,2.2955 0.7055,0.9292 1.5556,2.0038 2.5324,3.2609 -0.0363,0.091 -0.163,0.2733 -0.4158,0.5284 -0.959,1.5667 -0.8867,3.3338 0.2168,5.2829 h 2.7136 c 0.2169,-1.6395 0.6693,-2.8964 1.3746,-3.789 0.7599,-0.8198 1.5378,-2.077 2.3156,-3.7894 z m 51.0857,9.8739 c -0.163,-6.9409 -5.5174,-13.8271 -16.0455,-20.6589 -0.2897,-0.1822 -0.597,-0.3826 -0.9408,-0.6193 -0.3257,-0.2186 -0.7056,-0.4737 -1.1217,-0.7107 h -0.3257 c -0.1446,-2.8601 0.1088,-5.1919 0.7418,-6.9956 0.2531,-0.6375 0.796,-0.9655 1.6464,-0.9655 3.7083,0 6.711,2.7511 9.0085,8.271 1.3025,-1.0021 1.8269,-2.3502 1.5919,-4.0627 -0.6692,-2.0585 -2.0803,-3.844 -4.1967,-5.3742 -2.0803,-1.4757 -3.998,-2.2226 -5.7708,-2.2226 -4.0702,0 -6.2047,3.3885 -6.4218,10.1837 -0.561,-0.1275 -1.0854,-0.2185 -1.5557,-0.2551 -0.4703,-0.0363 -0.9227,-0.0363 -1.3567,0 -1.3028,0.3464 -1.9536,1.2753 -1.9536,2.7692 0,0.1457 0,0.3098 0.0179,0.4737 0.0181,0.1822 0.0544,0.3826 0.0904,0.6012 1.9358,-0.5831 3.6,-0.5465 4.9748,0.091 1.1755,5.2285 3.2743,10.3113 6.3133,15.2118 3.7809,6.0486 7.6881,9.0726 11.704,9.0726 h 0.6874 c 0.9949,0 1.7186,-0.5465 2.171,-1.6577 0.5063,-1.1659 0.7416,-2.2227 0.7416,-3.1519 z m -2.804,-2.0766 c 0.5969,2.5687 0.5606,3.8803 -0.1086,3.9532 -3.075,-0.4918 -6.0058,-2.8786 -8.7917,-7.1413 -2.2972,-3.4251 -4.2148,-7.6335 -5.7707,-12.6616 3.1657,1.2572 6.2231,3.4251 9.1536,6.522 2.9486,3.1334 4.7758,6.2487 5.5174,9.3277 z m 13.3681,-1.0021 c 0,-1.1659 -1.0672,-3.844 -3.1835,-8.0523 -1.6283,-3.1697 -3.4192,-5.9026 -5.4088,-8.2163 v 4.1536 c 0,1.4395 1.4111,4.9009 4.2511,10.4208 0.9765,1.9128 1.8451,3.1152 2.5866,3.5708 1.1758,0 1.7546,-0.6197 1.7546,-1.8766"
       style="fill:#2d496e;fill-opacity:1;fill-rule:nonzero;stroke:none"
       id="path2214" /><path
       d="m 201.78637,413.00632 c 1.7507,0 3.1697,-1.4193 3.1697,-3.1697 0,-1.7507 -1.419,-3.1697 -3.1697,-3.1697 -1.7504,0 -3.1697,1.419 -3.1697,3.1697 0,1.7504 1.4193,3.1697 3.1697,3.1697"
       style="fill:#f7aa47;fill-opacity:1;fill-rule:nonzero;stroke:none"
       id="path2216" /></g></svg>
