<?xml version="1.0" encoding="utf-8"?>
<!-- Generator: Adobe Illustrator 21.0.1, SVG Export Plug-In . SVG Version: 6.00 Build 0)  -->
<svg version="1.1" id="Layer_1" xmlns="http://www.w3.org/2000/svg" xmlns:xlink="http://www.w3.org/1999/xlink" x="0px" y="0px"
	 viewBox="0 0 41 41.3" style="enable-background:new 0 0 41 41.3;" xml:space="preserve">
<style type="text/css">
	.st0{fill:#16254F;}
</style>
<path class="st0" d="M31.5,18.7c3.7-3.7,5.4-8,4.2-11.6c-2-6-11.5-7.9-21.2-4.1c-1.9,0.8-3.7,1.7-5.3,2.7C8.8,6,8.4,6.2,8.1,6.4
	C7.9,6.6,7.6,6.8,7.3,7c-1.5,1.2-2.1,3,0.1,8.3c0,0,1.3,2.3,1.3,5.7c0,1.9-0.4,3.7-1.1,5.3c-0.1,0.3-0.3,0.6-0.4,0.9
	c-2.5,5.9-0.9,7.1,1.1,8.4c2.7,1.6,5.8,2.8,9.4,3.2c9.4,1,19.6-2.6,20.6-9.2C38.9,25.5,36.2,21.7,31.5,18.7z M21.5,29.6
	c-2,0-3.6-1.4-3.6-3.1c0-2.5,2.9-3.1,2.9-4.8l0-4.6c0-1.9-2.9-1.6-2.9-4.7c0-1.7,1.7-3.1,3.6-3.1c2,0,3.6,1.4,3.6,3.1
	c0,2.9-2.9,2.5-2.9,4.7l0,4.6c0,2.3,2.9,1.6,2.9,4.7C25.1,28.1,23.4,29.6,21.5,29.6z"/>
</svg>
